PathFileType	4	(X/Y/Z)	E:\Qualisys_Data\Carbon_Farble_Plate\Data\Amateur_Runner\S2\T2\S2T2V23_c3d.trc
DataRate	CameraRate	NumFrames	NumMarkers	Units	OrigDataRate	OrigDataStartFrame	OrigNumFrames
200.000000	200.000000	4	39	mm	200.000000	38	306
Frame#	Time	LSHO			RSHO			LICST			RICST			LASIS			LHEEL			RASIS			LTROC			RTROC			SACR			LTH1			LSK4			LTH2			LTH3			RHM5			LSK2			LTH4			RTH1			LTOE			RTH2			RTH3			RTH4			LLEP			RLEP			LSK1			LSK3			RSK1			LHM5			RSK2			LFT1			RSK3			RSK4			LLME			RLME			RTOE			RHEEL			RFT1			RFT2			LFT2			
		X1	Y1	Z1	X2	Y2	Z2	X3	Y3	Z3	X4	Y4	Z4	X5	Y5	Z5	X6	Y6	Z6	X7	Y7	Z7	X8	Y8	Z8	X9	Y9	Z9	X10	Y10	Z10	X11	Y11	Z11	X12	Y12	Z12	X13	Y13	Z13	X14	Y14	Z14	X15	Y15	Z15	X16	Y16	Z16	X17	Y17	Z17	X18	Y18	Z18	X19	Y19	Z19	X20	Y20	Z20	X21	Y21	Z21	X22	Y22	Z22	X23	Y23	Z23	X24	Y24	Z24	X25	Y25	Z25	X26	Y26	Z26	X27	Y27	Z27	X28	Y28	Z28	X29	Y29	Z29	X30	Y30	Z30	X31	Y31	Z31	X32	Y32	Z32	X33	Y33	Z33	X34	Y34	Z34	X35	Y35	Z35	X36	Y36	Z36	X37	Y37	Z37	X38	Y38	Z38	X39	Y39	Z39	

39	0.19	-2400.82568359375	1424.239379882812	-436.652099609375	-2418.287353515625	1385.899047851562	-117.6317443847656	-2490.59912109375	954.719970703125	-445.6845397949219	-2507.2294921875	948.1983032226562	-139.7754669189453	-2434.781005859375	903.7487182617188	-424.7056579589844	-2749.39404296875	571.1012573242188	-334.8096313476562	-2439.128662109375	907.7232666015624	-160.1592559814453	-2562.63671875	826.9067993164062	-442.9526062011719	-2585.671875	852.5466918945312	-142.8254852294922	-2581.86865234375	1000.9736328125	-300.033203125	-2366.13720703125	623.4661254882812	-464.9910278320312	-2576.451904296875	527.3846435546875	-433.202880859375	-2446.30419921875	599.7600708007812	-471.4307861328125	-2337.44091796875	525.0892333984375	-453.4337768554688	-2528.588134765625	75.58065032958984	-197.1241607666016	-2481.102783203125	512.1906127929688	-458.2423095703125	-2420.710693359375	504.7359313964844	-451.4979858398438	-2407.552734375	599.973876953125	-150.1369476318359	-2807.480224609375	333.5047607421875	-376.8147277832031	-2484.89990234375	586.5877075195312	-148.2804412841797	-2392.46826171875	503.7742919921875	-179.6559295654297	-2471.816162109375	492.9725646972656	-173.2309722900391	-2376.631103515625	468.3296508789062	-456.8781433105469	-2438.859130859375	458.3772583007812	-175.3821411132812	-2491.21728515625	434.4768981933594	-445.4073486328125	-2588.519775390625	449.0543823242188	-429.1458435058594	-2447.82373046875	333.1307678222656	-186.4074859619141	-2817.97119140625	398.3086242675781	-426.6674499511719	-2517.29638671875	370.4602661132812	-167.3957977294922	-2779.21533203125	567.10986328125	-309.8024291992188	-2499.322021484375	245.8915863037109	-202.6698303222656	-2565.45654296875	284.353515625	-182.6051940917969	-2751.30908203125	516.1162719726562	-398.46533203125	-2628.0859375	118.0363998413086	-224.7104339599609	-2456.330322265625	71.20826721191406	-260.1168518066406	-2697.52099609375	116.8833694458008	-282.6146545410156	-2687.639404296875	81.19674682617188	-307.0441589355469	-2703.789306640625	89.59996032714844	-254.1233215332031	-2782.40625	579.470458984375	-363.0335388183594
40	0.195	-2382.488525390625	1427.385498046875	-437.5968933105469	-2394.356201171875	1388.60498046875	-117.9521865844727	-2469.44189453125	957.56201171875	-445.1742553710938	-2483.2939453125	949.841552734375	-140.2645874023438	-2414.59033203125	907.367919921875	-425.2166748046875	-2720.95556640625	564.3988647460938	-335.5390014648438	-2416.94775390625	908.7896728515624	-161.1464385986328	-2541.198974609375	830.23974609375	-442.8580932617188	-2563.990234375	853.91357421875	-142.618408203125	-2560.249267578125	1002.998596191406	-298.6755065917969	-2336.964111328125	630.939697265625	-464.3485412597656	-2545.4248046875	526.9168701171875	-433.2471618652344	-2417.17919921875	604.2755126953125	-472.1990356445312	-2305.990966796875	533.0316772460938	-452.1044616699219	-2528.80517578125	75.51480102539062	-197.4918975830078	-2448.95849609375	515.5924682617188	-457.1002197265625	-2388.2392578125	509.7209777832031	-450.5121459960938	-2396.006591796875	596.123779296875	-149.3815155029297	-2766.22314453125	324.3441467285156	-377.3129577636719	-2472.95947265625	586.38818359375	-148.0903167724609	-2383.606689453125	499.2334594726562	-179.0663452148438	-2464.9150390625	492.7279052734375	-173.7296905517578	-2342.59326171875	474.2533264160156	-455.2734985351562	-2431.1767578125	456.7440490722656	-174.1409606933594	-2457.04833984375	437.8564758300781	-444.7494812011719	-2555.042236328125	448.6902160644531	-429.2959289550781	-2442.3076171875	332.0696105957031	-186.1042327880859	-2781.371337890625	388.2071533203125	-427.8147277832031	-2510.5703125	370.8166198730469	-167.0671234130859	-2750.158203125	558.9669799804688	-310.9561767578125	-2494.871337890625	246.0758209228516	-202.4801025390625	-2560.982421875	285.8534545898438	-182.5329437255859	-2720.693115234375	509.2879943847656	-399.6990661621094	-2626.4599609375	119.1098327636719	-224.3426208496094	-2456.257080078125	71.06210327148438	-260.4195861816406	-2696.577880859375	118.1623153686523	-282.1908264160156	-2687.518310546875	82.83438873291016	-307.3200073242188	-2703.357666015625	91.55856323242188	-254.2223510742188	-2755.177734375	570.7682495117188	-364.5989074707031
41	0.2	-2364.00341796875	1430.5458984375	-438.476806640625	-2370.75732421875	1392.187377929688	-118.5151214599609	-2448.875732421875	961.6583862304688	-445.1781005859375	-2460.195068359375	952.3588256835938	-139.801025390625	-2392.8408203125	911.3104858398438	-425.0596008300781	-2692.46435546875	556.0054321289062	-336.6271057128906	-2394.25244140625	910.4523315429688	-161.318359375	-2519.88525390625	834.169921875	-443.5951232910156	-2541.5751953125	856.053955078125	-142.8518981933594	-2538.311279296875	1005.665283203125	-297.383056640625	-2309.531494140625	639.2623291015625	-463.5372009277344	-2515.12646484375	526.86376953125	-433.8734130859375	-2388.49462890625	609.9645385742188	-471.6015625	-2274.623779296875	542.5517578125	-450.4927978515625	-2528.6015625	75.95596313476562	-197.9203948974609	-2418.55224609375	519.8624267578125	-457.1528015136719	-2356.7021484375	517.0169067382812	-450.0543212890625	-2383.3994140625	592.8526000976562	-148.9065704345703	-2725.4638671875	315.0569458007812	-377.0728149414062	-2461.500732421875	586.5138549804688	-147.7519989013672	-2375.886962890625	496.1737060546875	-178.2677764892578	-2456.257080078125	492.6143798828125	-173.5601654052734	-2309.3154296875	481.4814453125	-453.5154724121094	-2424.53857421875	456.3269348144531	-174.045166015625	-2422.592041015625	440.8768920898438	-443.55224609375	-2521.119384765625	448.3716735839844	-428.9575500488281	-2435.77490234375	332.4476928710938	-185.5769958496094	-2744.002197265625	377.0332946777344	-427.634521484375	-2504.138427734375	371.699462890625	-167.0911102294922	-2721.2861328125	551.8707885742188	-312.9490966796875	-2491.086669921875	247.1604919433594	-202.6888122558594	-2556.149658203125	287.7267761230469	-182.4229125976562	-2689.561279296875	501.9743347167969	-400.5483093261719	-2625.61083984375	121.8575210571289	-225.7555694580078	-2456.3037109375	71.24085998535156	-260.5244445800781	-2695.741943359375	120.2382659912109	-282.153076171875	-2687.1484375	84.9401626586914	-307.8981628417969	-2702.615478515625	93.53353881835938	-254.3032836914062	-2727.37109375	562.8392333984375	-367.6852111816406
42	0.205	-2345.32958984375	1434.254638671875	-438.8347778320312	-2347.06884765625	1396.432495117188	-119.8377838134766	-2427.30859375	965.5634765625	-445.1332397460938	-2436.002197265625	954.2562255859376	-139.4847717285156	-2371.70263671875	915.6663818359376	-425.1679077148438	-2667.505615234375	553.0010986328125	-339.1191101074219	-2371.05712890625	912.130615234375	-161.4114379882812	-2497.56884765625	838.17578125	-443.5267944335938	-2519.453369140625	857.8590698242188	-142.4742279052734	-2515.635498046875	1008.399536132812	-295.2945251464844	-2281.9326171875	648.3211669921875	-462.3839721679688	-2484.75244140625	526.7999267578125	-434.5168762207031	-2362.3125	618.034912109375	-472.4296264648438	-2244.635986328125	552.8770141601562	-449.0638732910156	-2528.11279296875	76.2374038696289	-198.2208709716797	-2387.833984375	523.951171875	-456.7560729980469	-2324.74169921875	523.7946166992188	-448.633544921875	-2371.5078125	591.2448120117188	-148.18896484375	-2678.06396484375	309.7843933105469	-375.7113342285156	-2448.854248046875	588.2214965820312	-148.0213165283203	-2367.995849609375	494.0002136230469	-178.24951171875	-2448.279296875	494.1422424316406	-173.4181060791016	-2278.04150390625	491.7294616699219	-453.1803894042969	-2417.2578125	457.0621032714844	-173.38134765625	-2388.40966796875	444.8251953125	-442.3823852539062	-2487.498046875	447.9148864746094	-428.4854431152344	-2430.974853515625	333.6459045410156	-186.0810852050781	-2705.25537109375	366.6296081542969	-428.0876770019531	-2498.166748046875	373.3716125488281	-166.2532806396484	-2694.361572265625	541.3743286132812	-315.2125549316406	-2487.18505859375	248.6377258300781	-202.5649261474609	-2551.779052734375	290.8576965332031	-182.4730224609375	-2658.504150390625	493.6572265625	-401.569580078125	-2622.8310546875	124.3543167114258	-226.5076141357422	-2457.28173828125	70.98646545410156	-261.2762756347656	-2695.322265625	122.4430694580078	-283.2447204589844	-2686.397705078125	86.66899108886719	-307.7273559570312	-2702.07373046875	96.26588439941406	-255.1771850585938	-2700.731201171875	552.9140014648438	-368.8881530761719
